<svg width="121" height="40" viewBox="0 0 121 40" fill="none" xmlns="http://www.w3.org/2000/svg">
<circle cx="20" cy="20" r="20" fill="white"/>
<path d="M54.6523 23.6055C54.6523 22.8555 54.3867 22.2773 53.8555 21.8711C53.332 21.4648 52.3828 21.0547 51.0078 20.6406C49.6328 20.2266 48.5391 19.7656 47.7266 19.2578C46.1719 18.2812 45.3945 17.0078 45.3945 15.4375C45.3945 14.0625 45.9531 12.9297 47.0703 12.0391C48.1953 11.1484 49.6523 10.7031 51.4414 10.7031C52.6289 10.7031 53.6875 10.9219 54.6172 11.3594C55.5469 11.7969 56.2773 12.4219 56.8086 13.2344C57.3398 14.0391 57.6055 14.9336 57.6055 15.918H54.6523C54.6523 15.0273 54.3711 14.332 53.8086 13.832C53.2539 13.3242 52.457 13.0703 51.418 13.0703C50.4492 13.0703 49.6953 13.2773 49.1562 13.6914C48.625 14.1055 48.3594 14.6836 48.3594 15.4258C48.3594 16.0508 48.6484 16.5742 49.2266 16.9961C49.8047 17.4102 50.7578 17.8164 52.0859 18.2148C53.4141 18.6055 54.4805 19.0547 55.2852 19.5625C56.0898 20.0625 56.6797 20.6406 57.0547 21.2969C57.4297 21.9453 57.6172 22.707 57.6172 23.582C57.6172 25.0039 57.0703 26.1367 55.9766 26.9805C54.8906 27.8164 53.4141 28.2344 51.5469 28.2344C50.3125 28.2344 49.1758 28.0078 48.1367 27.5547C47.1055 27.0938 46.3008 26.4609 45.7227 25.6562C45.1523 24.8516 44.8672 23.9141 44.8672 22.8438H47.832C47.832 23.8125 48.1523 24.5625 48.793 25.0938C49.4336 25.625 50.3516 25.8906 51.5469 25.8906C52.5781 25.8906 53.3516 25.6836 53.8672 25.2695C54.3906 24.8477 54.6523 24.293 54.6523 23.6055ZM71.0469 21.7891C71.0469 23.75 70.6016 25.3164 69.7109 26.4883C68.8203 27.6523 67.625 28.2344 66.125 28.2344C64.7344 28.2344 63.6211 27.7773 62.7852 26.8633V32.875H59.9375V15.3203H62.5625L62.6797 16.6094C63.5156 15.5938 64.6523 15.0859 66.0898 15.0859C67.6367 15.0859 68.8477 15.6641 69.7227 16.8203C70.6055 17.9688 71.0469 19.5664 71.0469 21.6133V21.7891ZM68.2109 21.543C68.2109 20.2773 67.957 19.2734 67.4492 18.5312C66.9492 17.7891 66.2305 17.418 65.293 17.418C64.1289 17.418 63.293 17.8984 62.7852 18.8594V24.4844C63.3008 25.4688 64.1445 25.9609 65.3164 25.9609C66.2227 25.9609 66.9297 25.5977 67.4375 24.8711C67.9531 24.1367 68.2109 23.0273 68.2109 21.543ZM72.9336 21.543C72.9336 20.3008 73.1797 19.1836 73.6719 18.1914C74.1641 17.1914 74.8555 16.4258 75.7461 15.8945C76.6367 15.3555 77.6602 15.0859 78.8164 15.0859C80.5273 15.0859 81.9141 15.6367 82.9766 16.7383C84.0469 17.8398 84.625 19.3008 84.7109 21.1211L84.7227 21.7891C84.7227 23.0391 84.4805 24.1562 83.9961 25.1406C83.5195 26.125 82.832 26.8867 81.9336 27.4258C81.043 27.9648 80.0117 28.2344 78.8398 28.2344C77.0508 28.2344 75.6172 27.6406 74.5391 26.4531C73.4688 25.2578 72.9336 23.668 72.9336 21.6836V21.543ZM75.7812 21.7891C75.7812 23.0938 76.0508 24.1172 76.5898 24.8594C77.1289 25.5938 77.8789 25.9609 78.8398 25.9609C79.8008 25.9609 80.5469 25.5859 81.0781 24.8359C81.6172 24.0859 81.8867 22.9883 81.8867 21.543C81.8867 20.2617 81.6094 19.2461 81.0547 18.4961C80.5078 17.7461 79.7617 17.3711 78.8164 17.3711C77.8867 17.3711 77.1484 17.7422 76.6016 18.4844C76.0547 19.2188 75.7812 20.3203 75.7812 21.7891ZM90.6992 12.2383V15.3203H92.9375V17.4297H90.6992V24.5078C90.6992 24.9922 90.793 25.3438 90.9805 25.5625C91.1758 25.7734 91.5195 25.8789 92.0117 25.8789C92.3398 25.8789 92.6719 25.8398 93.0078 25.7617V27.9648C92.3594 28.1445 91.7344 28.2344 91.1328 28.2344C88.9453 28.2344 87.8516 27.0273 87.8516 24.6133V17.4297H85.7656V15.3203H87.8516V12.2383H90.6992ZM98.1523 28H95.3047V15.3203H98.1523V28ZM95.1289 12.0273C95.1289 11.5898 95.2656 11.2266 95.5391 10.9375C95.8203 10.6484 96.2188 10.5039 96.7344 10.5039C97.25 10.5039 97.6484 10.6484 97.9297 10.9375C98.2109 11.2266 98.3516 11.5898 98.3516 12.0273C98.3516 12.457 98.2109 12.8164 97.9297 13.1055C97.6484 13.3867 97.25 13.5273 96.7344 13.5273C96.2188 13.5273 95.8203 13.3867 95.5391 13.1055C95.2656 12.8164 95.1289 12.457 95.1289 12.0273ZM102.266 28V17.4297H100.332V15.3203H102.266V14.1602C102.266 12.7539 102.656 11.668 103.438 10.9023C104.219 10.1367 105.312 9.75391 106.719 9.75391C107.219 9.75391 107.75 9.82422 108.312 9.96484L108.242 12.1914C107.93 12.1289 107.566 12.0977 107.152 12.0977C105.793 12.0977 105.113 12.7969 105.113 14.1953V15.3203H107.691V17.4297H105.113V28H102.266ZM114.207 23.9219L116.785 15.3203H119.82L114.781 29.9219C114.008 32.0547 112.695 33.1211 110.844 33.1211C110.43 33.1211 109.973 33.0508 109.473 32.9102V30.707L110.012 30.7422C110.73 30.7422 111.27 30.6094 111.629 30.3438C111.996 30.0859 112.285 29.6484 112.496 29.0312L112.906 27.9414L108.453 15.3203H111.523L114.207 23.9219Z" fill="white"/>
</svg>
